<svg width="21" height="20" viewBox="0 0 21 20" fill="none" xmlns="http://www.w3.org/2000/svg" xlink:href="data:image/png>
<path d="M15.0086 12.5786H14.06L13.7238 12.2699C14.9412 10.9251 15.6102 9.20834 15.6089 7.43282C15.6089 5.96275 15.1512 4.52569 14.2936 3.30337C13.4361 2.08105 12.2172 1.12837 10.7911 0.565793C9.36502 0.00322052 7.7958 -0.143974 6.28189 0.142823C4.76797 0.42962 3.37735 1.13753 2.28588 2.17702C1.1944 3.21652 0.451101 4.54092 0.149964 5.98275C-0.151173 7.42457 0.00338155 8.91907 0.594083 10.2772C1.18478 11.6354 2.1851 12.7963 3.46854 13.613C4.75197 14.4297 6.26089 14.8656 7.80446 14.8656C9.73757 14.8656 11.5146 14.191 12.8834 13.0703L13.2075 13.3905V14.2939L19.211 20L21 18.2962L15.0086 12.5786ZM7.80446 12.5786C4.81475 12.5786 2.40138 10.2802 2.40138 7.43282C2.40138 4.58548 4.81475 2.28702 7.80446 2.28702C10.7942 2.28702 13.2075 4.58548 13.2075 7.43282C13.2075 10.2802 10.7942 12.5786 7.80446 12.5786Z" fill="white"/>
</svg>
