<svg width="21" height="20" viewBox="0 0 21 20" fill="none" xmlns="http://www.w3.org/2000/svg">
<path d="M14.8656 12.5786H13.9261L13.5931 12.2699C14.7989 10.9251 15.4616 9.20834 15.4603 7.43282C15.4603 5.96275 15.0069 4.52569 14.1575 3.30337C13.3081 2.08105 12.1008 1.12837 10.6883 0.565793C9.27583 0.0032205 7.72156 -0.143974 6.22206 0.142823C4.72256 0.42962 3.34518 1.13753 2.26411 2.17702C1.18303 3.21652 0.446804 4.54092 0.148536 5.98275C-0.149733 7.42457 0.00334936 8.91907 0.588425 10.2772C1.1735 11.6354 2.16429 12.7963 3.4355 13.613C4.70672 14.4297 6.20126 14.8656 7.73013 14.8656C9.64483 14.8656 11.4049 14.191 12.7607 13.0703L13.0818 13.3905V14.2939L19.028 20L20.8 18.2962L14.8656 12.5786ZM7.73013 12.5786C4.7689 12.5786 2.3785 10.2802 2.3785 7.43282C2.3785 4.58548 4.7689 2.28702 7.73013 2.28702C10.6914 2.28702 13.0818 4.58548 13.0818 7.43282C13.0818 10.2802 10.6914 12.5786 7.73013 12.5786Z" fill="white"/>
</svg>
