<svg width="15" height="12" viewBox="0 0 15 12" fill="none" xmlns="http://www.w3.org/2000/svg">
<path fill-rule="evenodd" clip-rule="evenodd" d="M0.918009 5.22486L9.85259 1.66232C10.7353 1.29141 13.7269 0.105332 13.7269 0.105332C13.7269 0.105332 15.109 -0.412228 14.9931 0.847167C14.953 1.36473 14.6498 3.18481 14.3422 5.15153L13.3836 10.9784C13.3836 10.9784 13.3078 11.8324 12.6569 11.979C12.006 12.1256 10.9315 11.4614 10.7398 11.3105C10.5882 11.1984 7.86416 9.52922 6.86548 8.71407C6.59798 8.48979 6.29035 8.04555 6.9056 7.52799C8.2877 6.3031 9.9373 4.78062 10.9315 3.81882C11.3907 3.37458 11.8499 2.33515 9.93284 3.59454L4.52483 7.11395C4.52483 7.11395 3.90958 7.48486 2.75932 7.15276C1.60906 6.82066 0.267086 6.37211 0.267086 6.37211C0.267086 6.37211 -0.651339 5.81574 0.918009 5.22486Z" fill="white"/>
</svg>
