<svg width="21" height="21" viewBox="0 0 21 21" fill="none" xmlns="http://www.w3.org/2000/svg">
<path d="M17.948 4.88775L17.4694 5.36637C17.2257 5.61004 16.8952 5.74693 16.5506 5.74693C16.206 5.74693 15.8755 5.61004 15.6319 5.36637C15.3882 5.12271 15.2513 4.79222 15.2513 4.44762C15.2513 4.10303 15.3882 3.77254 15.6319 3.52888L16.1105 3.05025L13.0602 0L9.21025 3.85L8.50631 4.55394L0 13.0602L3.052 16.1122L3.53062 15.6336C3.77429 15.39 4.10478 15.2531 4.44937 15.2531C4.79397 15.2531 5.12446 15.39 5.36812 15.6336C5.61179 15.8773 5.74868 16.2078 5.74868 16.5524C5.74868 16.897 5.61179 17.2275 5.36812 17.4711L4.8895 17.9498L7.93975 21L16.4447 12.495L17.1487 11.7911L20.9987 7.94106L17.948 4.88775Z" fill="#B6B6B6"/>
</svg>
