<svg width="12" height="17" viewBox="0 0 12 17" fill="none" xmlns="http://www.w3.org/2000/svg">
<path d="M5.95 0C2.6605 0 0 2.6605 0 5.95C0 10.4125 5.95 17 5.95 17C5.95 17 11.9 10.4125 11.9 5.95C11.9 2.6605 9.2395 0 5.95 0ZM5.95 8.075C5.38641 8.075 4.84591 7.85112 4.4474 7.4526C4.04888 7.05409 3.825 6.51359 3.825 5.95C3.825 5.38642 4.04888 4.84591 4.4474 4.4474C4.84591 4.04888 5.38641 3.825 5.95 3.825C6.51358 3.825 7.05409 4.04888 7.4526 4.4474C7.85112 4.84591 8.075 5.38642 8.075 5.95C8.075 6.51359 7.85112 7.05409 7.4526 7.4526C7.05409 7.85112 6.51358 8.075 5.95 8.075Z" fill="#B6B6B6"/>
</svg>
