<svg width="19" height="13" viewBox="0 0 19 13" fill="none" xmlns="http://www.w3.org/2000/svg">
<path d="M17.6667 2.20354C17.4729 1.45784 16.8917 0.869133 16.1554 0.663085C14.8282 0.300049 9.5001 0.300049 9.5001 0.300049C9.5001 0.300049 4.17197 0.300049 2.8351 0.663085C2.09885 0.859321 1.52729 1.44803 1.32385 2.20354C0.975098 3.55756 0.975098 6.38336 0.975098 6.38336C0.975098 6.38336 0.975098 9.20916 1.33354 10.5632C1.52729 11.3089 2.10854 11.8976 2.84478 12.1036C4.17197 12.4667 9.5001 12.4667 9.5001 12.4667C9.5001 12.4667 14.8282 12.4667 16.1651 12.1036C16.9013 11.9074 17.4729 11.3187 17.6763 10.5632C18.0251 9.20916 18.0251 6.38336 18.0251 6.38336C18.0251 6.38336 18.0251 3.55756 17.6667 2.20354Z" fill="white"/>
<path d="M8.0791 8.88845L12.3416 6.38356L8.0791 3.87866V8.88845Z" fill="#B6B6B6"/>
</svg>
